<?xml version="1.0" encoding="UTF-8" standalone="no"?>
<!-- Created with Inkscape (http://www.inkscape.org/) -->

<svg
   xmlns:osb="http://www.openswatchbook.org/uri/2009/osb"
   xmlns:dc="http://purl.org/dc/elements/1.1/"
   xmlns:cc="http://creativecommons.org/ns#"
   xmlns:rdf="http://www.w3.org/1999/02/22-rdf-syntax-ns#"
   xmlns:svg="http://www.w3.org/2000/svg"
   xmlns="http://www.w3.org/2000/svg"
   xmlns:xlink="http://www.w3.org/1999/xlink"
   xmlns:sodipodi="http://sodipodi.sourceforge.net/DTD/sodipodi-0.dtd"
   xmlns:inkscape="http://www.inkscape.org/namespaces/inkscape"
   width="744.09448819"
   height="1052.3622047"
   id="svg3815"
   version="1.1"
   inkscape:version="0.48.4 r9939"
   sodipodi:docname="New document 3">
  <defs
     id="defs3817">
    <marker
       inkscape:stockid="TriangleOutM"
       orient="auto"
       refY="0.0"
       refX="0.0"
       id="TriangleOutM"
       style="overflow:visible">
      <path
         id="path6228"
         d="M 5.77,0.0 L -2.88,5.0 L -2.88,-5.0 L 5.77,0.0 z "
         style="fill-rule:evenodd;stroke:#000000;stroke-width:1.0pt"
         transform="scale(0.4)" />
    </marker>
    <marker
       inkscape:stockid="TriangleOutL"
       orient="auto"
       refY="0.0"
       refX="0.0"
       id="TriangleOutL"
       style="overflow:visible">
      <path
         id="path6225"
         d="M 5.77,0.0 L -2.88,5.0 L -2.88,-5.0 L 5.77,0.0 z "
         style="fill-rule:evenodd;stroke:#000000;stroke-width:1.0pt"
         transform="scale(0.8)" />
    </marker>
    <marker
       inkscape:stockid="Arrow2Lend"
       orient="auto"
       refY="0.0"
       refX="0.0"
       id="Arrow2Lend"
       style="overflow:visible;">
      <path
         id="path6104"
         style="fill-rule:evenodd;stroke-width:0.62500000;stroke-linejoin:round;"
         d="M 8.7185878,4.0337352 L -2.2072895,0.016013256 L 8.7185884,-4.0017078 C 6.9730900,-1.6296469 6.9831476,1.6157441 8.7185878,4.0337352 z "
         transform="scale(1.1) rotate(180) translate(1,0)" />
    </marker>
    <linearGradient
       id="linearGradient5831"
       osb:paint="solid">
      <stop
         style="stop-color:#000000;stop-opacity:1;"
         offset="0"
         id="stop5833" />
    </linearGradient>
    <linearGradient
       inkscape:collect="always"
       id="linearGradient5813">
      <stop
         style="stop-color:#000000;stop-opacity:1;"
         offset="0"
         id="stop5815" />
      <stop
         style="stop-color:#000000;stop-opacity:0;"
         offset="1"
         id="stop5817" />
    </linearGradient>
    <radialGradient
       inkscape:collect="always"
       xlink:href="#linearGradient5813"
       id="radialGradient5819"
       cx="208.09141"
       cy="262.42291"
       fx="208.09141"
       fy="262.42291"
       r="324.70819"
       gradientTransform="matrix(1,0,0,1.8586236,0,-225.32251)"
       gradientUnits="userSpaceOnUse" />
    <marker
       inkscape:stockid="TriangleOutM"
       orient="auto"
       refY="0"
       refX="0"
       id="TriangleOutM-9"
       style="overflow:visible">
      <path
         inkscape:connector-curvature="0"
         id="path6228-2"
         d="m 5.77,0 -8.65,5 0,-10 8.65,5 z"
         style="fill-rule:evenodd;stroke:#000000;stroke-width:1pt"
         transform="scale(0.4,0.4)" />
    </marker>
  </defs>
  <sodipodi:namedview
     id="base"
     pagecolor="#ffffff"
     bordercolor="#666666"
     borderopacity="1.0"
     inkscape:pageopacity="0.0"
     inkscape:pageshadow="2"
     inkscape:zoom="0.7"
     inkscape:cx="-373.92259"
     inkscape:cy="812.72691"
     inkscape:document-units="px"
     inkscape:current-layer="layer1"
     showgrid="false"
     inkscape:snap-bbox="true"
     showguides="true"
     inkscape:guide-bbox="true"
     inkscape:window-width="1680"
     inkscape:window-height="948"
     inkscape:window-x="0"
     inkscape:window-y="35"
     inkscape:window-maximized="1" />
  <metadata
     id="metadata3820">
    <rdf:RDF>
      <cc:Work
         rdf:about="">
        <dc:format>image/svg+xml</dc:format>
        <dc:type
           rdf:resource="http://purl.org/dc/dcmitype/StillImage" />
        <dc:title></dc:title>
      </cc:Work>
    </rdf:RDF>
  </metadata>
  <g
     inkscape:label="Layer 1"
     inkscape:groupmode="layer"
     id="layer1"
     style="display:inline">
    <rect
       style="opacity:0;fill:#ff0000;fill-opacity:0;stroke:url(#radialGradient5819);stroke-width:11;stroke-miterlimit:4;stroke-opacity:1;stroke-dasharray:none"
       id="rect4357"
       width="638.41638"
       height="1196.0206"
       x="-111.11678"
       y="-335.5874" />
    <text
       xml:space="preserve"
       style="font-size:40px;font-style:normal;font-variant:normal;font-weight:normal;font-stretch:normal;line-height:125%;letter-spacing:0px;word-spacing:0px;fill:#000000;fill-opacity:1;stroke:none;display:inline;font-family:DejaVu Sans;-inkscape-font-specification:DejaVu Sans"
       x="-790.61945"
       y="574.00659"
       id="text5855-7"
       sodipodi:linespacing="125%"
       inkscape:export-filename="/home/seb/Desktop/workflow.png"
       inkscape:export-xdpi="35.224514"
       inkscape:export-ydpi="35.224514"><tspan
         sodipodi:role="line"
         id="tspan5857-9"
         x="-790.61945"
         y="574.00659"
         style="font-style:normal;font-variant:normal;font-weight:normal;font-stretch:normal;font-family:Bitstream Vera Serif;-inkscape-font-specification:Bitstream Vera Serif">Hadoop Cluster</tspan></text>
    <rect
       style="fill:none;stroke:#000000;stroke-width:5.3325119;stroke-miterlimit:4;stroke-opacity:0.68095236;stroke-dasharray:none"
       id="rect5883"
       width="733.05853"
       height="603.75903"
       x="-987.78827"
       y="59.538342"
       inkscape:export-filename="/home/seb/Desktop/workflow.png"
       inkscape:export-xdpi="35.224514"
       inkscape:export-ydpi="35.224514" />
    <rect
       style="fill:none;stroke:#000000;stroke-width:3;stroke-miterlimit:4;stroke-opacity:0.68095236;stroke-dasharray:none"
       id="rect5885"
       width="216.17264"
       height="40.406101"
       x="-986.97485"
       y="17.965984"
       inkscape:export-filename="/home/seb/Desktop/workflow.png"
       inkscape:export-xdpi="35.224514"
       inkscape:export-ydpi="35.224514" />
    <text
       xml:space="preserve"
       style="font-size:40px;font-style:normal;font-weight:normal;line-height:125%;letter-spacing:0px;word-spacing:0px;fill:#000000;fill-opacity:1;stroke:none;font-family:Sans"
       x="-948.79211"
       y="50.148739"
       id="text5887"
       sodipodi:linespacing="125%"
       inkscape:export-filename="/home/seb/Desktop/workflow.png"
       inkscape:export-xdpi="35.224514"
       inkscape:export-ydpi="35.224514"><tspan
         sodipodi:role="line"
         id="tspan5889"
         x="-948.79211"
         y="50.148739">Docker</tspan></text>
    <text
       xml:space="preserve"
       style="font-size:40px;font-style:normal;font-weight:normal;line-height:125%;letter-spacing:0px;word-spacing:0px;fill:#000000;fill-opacity:1;stroke:none;font-family:Sans"
       x="-425.63467"
       y="445.43918"
       id="text5893"
       sodipodi:linespacing="125%"
       inkscape:export-filename="/home/seb/Desktop/workflow.png"
       inkscape:export-xdpi="35.224514"
       inkscape:export-ydpi="35.224514"><tspan
         sodipodi:role="line"
         id="tspan5895"
         x="-425.63467"
         y="445.43918"
         style="font-size:35px;font-style:normal;font-variant:normal;font-weight:normal;font-stretch:normal;font-family:Bitstream Vera Serif;-inkscape-font-specification:Bitstream Vera Serif">Register </tspan><tspan
         sodipodi:role="line"
         x="-425.63467"
         y="489.18918"
         style="font-size:35px;font-style:normal;font-variant:normal;font-weight:normal;font-stretch:normal;font-family:Bitstream Vera Serif;-inkscape-font-specification:Bitstream Vera Serif"
         id="tspan7051">   Apps</tspan></text>
    <text
       sodipodi:linespacing="125%"
       id="text6932"
       y="369.05261"
       x="-784.73322"
       style="font-size:40.15472794px;font-style:normal;font-variant:normal;font-weight:normal;font-stretch:normal;line-height:125%;letter-spacing:0px;word-spacing:0px;fill:#000000;fill-opacity:1;stroke:none;font-family:Kedage;-inkscape-font-specification:Kedage"
       xml:space="preserve"
       transform="scale(0.9961467,1.0038682)"
       inkscape:export-filename="/home/seb/Desktop/workflow.png"
       inkscape:export-xdpi="35.224514"
       inkscape:export-ydpi="35.224514"><tspan
         y="369.05261"
         x="-784.73322"
         id="tspan6934"
         sodipodi:role="line"
         style="font-size:56px;font-style:normal;font-variant:normal;font-weight:normal;font-stretch:normal;font-family:Bitstream Vera Serif;-inkscape-font-specification:Bitstream Vera Serif">Cloudgene</tspan></text>
    <path
       style="fill-rule:evenodd"
       inkscape:connector-curvature="0"
       clip-rule="evenodd"
       d="m -595.09733,465.92033 c -0.005,0 -0.0136,0 -0.0196,0 h -10.61708 v 52.21497 c 0,1.43075 -0.92539,2.59277 -2.06817,2.59277 h -12.68525 c -1.14277,0 -2.07118,-1.16202 -2.07118,-2.59277 v -52.21497 h -10.61558 c -0.7533,0 -1.44469,-0.51098 -1.80851,-1.33613 -0.36532,-0.82136 -0.3457,-1.83008 0.0513,-2.62683 l 19.02863,-38.37109 c 0.75481,-1.52349 2.75956,-1.52349 3.51437,0 l 18.83842,37.99069 c 0.33815,0.46178 0.54346,1.07496 0.54346,1.7487 0,1.44211 -1.01748,2.5852 -2.09081,2.59466 z m -23.32046,49.62031 h 8.5459 v -50.79746 c -0.54044,0.57154 -1.08238,1.15255 -1.70434,1.81115 0.0906,0.11544 0.16908,0.24981 0.22795,0.39365 0.19624,0.48638 0.17813,1.06171 -0.0528,1.52916 l -2.91959,5.91795 c 0.42874,-0.28766 0.8635,-0.5829 1.28619,-0.8611 0.33665,-0.1779 0.63858,-0.24035 0.95861,-0.11545 0.31701,0.1287 0.58271,0.40879 0.73367,0.78351 0.27173,0.66239 0.33815,0.82136 -2.14969,5.03792 0.29891,-0.19303 0.48459,-0.30659 0.48459,-0.30659 h 0 c 0.52686,-0.33687 1.16994,-0.16465 1.53678,0.41258 0.36835,0.5829 0.35777,1.40236 -0.0226,1.97391 l -1.3209,1.96445 c 0.36381,-0.16844 0.49665,-0.11545 0.75178,-0.0132 0.31702,0.12301 0.58119,0.40878 0.73216,0.77783 0.29891,0.7343 0.35929,0.88949 -2.47878,6.01825 1.24241,-0.82893 1.28317,-0.81757 1.75266,-0.62832 0.37287,0.14762 0.66724,0.50531 0.79858,0.96519 0.12831,0.46556 0.077,0.97655 -0.1404,1.37966 -0.76687,1.44211 -1.68774,3.1662 -2.53915,4.76539 1.34506,-0.82892 1.51262,-0.76269 1.88097,-0.61318 0.31852,0.12302 0.58875,0.40879 0.73971,0.77783 0.35174,0.86868 0.0906,1.30585 -0.61291,2.47922 -0.54949,0.91599 -1.05069,1.76384 -1.50659,2.51707 0.90124,-0.51098 1.06881,-0.44096 1.38432,-0.31795 0.31852,0.12491 0.58875,0.40879 0.7397,0.78351 0.21286,0.52234 0.1721,1.15256 -0.10567,1.62758 -0.65969,1.12038 -1.43111,2.45083 -2.17837,3.72261 l 0.62045,-0.38797 c 0.6114,-0.39364 1.35866,-0.0927 1.66963,0.67564 0.3125,0.76458 0.0679,1.69949 -0.54195,2.08935 l -5.23985,3.34411 c -0.44685,0.29145 -0.96464,0.19682 -1.33298,-0.17412 v 2.46787 z m 0,-4.83732 c 0.35929,-0.72673 0.96313,-1.81115 1.94438,-3.50686 -0.19927,0.12869 -0.39703,0.26874 -0.59327,0.39743 -0.32306,0.19683 -0.63857,0.24035 -0.96012,0.11166 -0.14492,-0.0511 -0.27474,-0.15329 -0.39249,-0.26495 v 3.26272 z m 0,-5.66245 c 0.3457,-0.68699 0.91181,-1.68246 1.82512,-3.22866 -0.16153,0.10598 -0.32155,0.21575 -0.48005,0.32173 -0.33212,0.19682 -0.64008,0.24035 -0.95861,0.11733 -0.1419,-0.053 -0.27021,-0.14951 -0.38495,-0.26117 v 3.05077 z m 0,-5.48645 c 0.39401,-0.86868 1.07485,-2.19913 2.25838,-4.43232 -1.34507,0.84407 -1.48092,0.79108 -1.87946,0.62833 -0.14493,-0.053 -0.26267,-0.16844 -0.37892,-0.27821 v 4.0822 z m 0,-6.65793 c 0.67027,-1.20555 1.44168,-2.58899 2.19045,-3.93269 -1.30733,0.82704 -1.42205,0.78162 -1.82211,0.62265 -0.1419,-0.0568 -0.25361,-0.1779 -0.36834,-0.28767 v 3.59771 z m 0,-6.10342 1.1775,-1.75438 c -0.48912,0.24035 -0.6114,0.18736 -0.82123,0.10598 -0.13586,-0.0511 -0.24455,-0.16843 -0.35476,-0.27631 v 1.92471 z m 0,-4.49098 c 0.33664,-0.56208 0.98125,-1.63893 1.71642,-2.8634 -0.87254,0.49017 -1.03709,0.42203 -1.3526,0.30091 -0.13586,-0.0511 -0.2506,-0.15708 -0.36231,-0.26874 v 2.83123 z m 0,-5.5243 2.60106,-5.26503 c -0.43024,0.28199 -0.865,0.57723 -1.28921,0.85921 -0.44835,0.32363 -0.94199,0.24603 -1.31185,-0.1003 v 4.50612 z m 0,-7.04401 c 1.79946,-1.90578 3.99142,-4.23548 6.09279,-6.48381 l -4.81415,3.07347 c -0.43326,0.2782 -0.90727,0.12491 -1.27864,-0.23089 v 3.64123 z m 0,-6.09584 c 1.6485,-2.01555 3.59589,-4.39446 5.40592,-6.60873 -0.11624,0.0776 -0.23399,0.1533 -0.34722,0.22522 -4.18614,2.70442 -5.55234,3.58445 -6.16675,3.81534 l 0,0 c 0.26117,0.17222 0.47553,0.41825 0.65668,0.70592 0.0755,0.11923 0.14341,0.24035 0.20078,0.3785 0.0422,0.0965 0.08,0.19683 0.11171,0.30281 0.0815,0.27441 0.14039,0.5564 0.14039,0.86867 v 0.31227 z m -2.17233,-2.90504 c -0.10566,-0.12491 -0.20228,-0.26117 -0.2687,-0.42771 -0.20229,-0.50152 -0.31703,-0.77405 0.66271,-2.06097 l -0.0272,-0.0833 c 0.0317,-0.0189 0.0891,-0.0568 0.17361,-0.10598 0.62951,-0.80244 1.64548,-1.96445 3.24113,-3.73208 l -10.02984,6.40812 h 6.24827 z m -0.52534,-16.80758 -0.0951,0.19682 -0.2657,0.53748 c 0.0936,-0.10976 0.17663,-0.21007 0.27325,-0.32173 l 0.55553,-0.65292 c -0.19474,0.11166 -0.32759,0.17222 -0.46798,0.24035 z m -5.52064,11.12998 -1.39035,2.80474 c 2.00325,-1.89821 4.25408,-4.0311 6.4717,-6.14506 -1.79795,1.17905 -3.55212,2.3316 -5.08135,3.34032 z m -1.98967,5.6776 c -0.08,-0.0927 -0.16454,-0.18358 -0.22644,-0.30659 -0.0891,-0.17979 -0.1419,-0.36526 -0.16756,-0.5583 l -0.43024,0.86489 h 0.82424 z m 14.48018,-30.86342 -0.75782,1.52728 c 0.007,0.31226 -0.0348,0.63021 -0.17511,0.89516 l -3.32417,6.47436 c 1.48697,-0.97087 3.1566,-2.07043 4.52883,-2.98263 0.57063,-0.36337 1.22882,-0.16844 1.59264,0.46556 0.3623,0.634 0.29437,1.51024 -0.16153,2.04204 -2.28102,2.68551 -5.05267,5.95202 -7.53145,8.86841 9.18296,-5.98987 9.40185,-5.89902 9.9272,-5.69274 0.31702,0.12491 0.58573,0.40879 0.73669,0.78351 0.21134,0.52234 0.33967,0.83461 -0.81217,2.1802 l 0.003,0.0189 c -0.0106,0.009 -0.0242,0.009 -0.0348,0.0189 -0.92841,1.07685 -2.65993,2.80473 -5.77878,5.80818 l 7.04082,-4.49666 c 0.56006,-0.35958 1.24392,-0.13815 1.59415,0.51288 0.35174,0.65482 0.25663,1.53295 -0.2189,2.04583 -1.14579,1.2396 -2.44556,2.65143 -3.74987,4.06326 4.71451,-3.01669 4.79301,-3.00723 5.25344,-2.81987 0.314,0.13058 0.57517,0.40879 0.72311,0.77405 0.19172,0.47124 0.2989,0.73051 -0.66876,2.13288 l 0.006,0.0284 c -0.0106,0 -0.0226,0.0113 -0.0378,0.0151 -0.79556,1.14687 -2.29309,3.0394 -5.00284,6.37026 l 6.54114,-4.17492 c 0.61139,-0.38987 1.35713,-0.0871 1.66962,0.68131 0.21135,0.51855 0.33665,0.82703 -0.56308,2.04582 l 0.0196,0.0473 -0.10417,0.0625 c -0.10566,0.13816 -0.23096,0.29713 -0.3623,0.4561 -0.0574,0.0416 -0.12529,0.0908 -0.17361,0.12491 -0.45137,0.11923 -0.76839,0.59047 -0.89217,1.13363 -0.36986,0.42392 -0.80915,0.9122 -1.29978,1.45157 h 1.57452 c -0.0845,-0.11166 -0.17058,-0.22143 -0.22795,-0.35958 -0.14341,-0.35201 -0.12831,-0.7362 -0.0484,-1.0901 0.4242,-0.48638 0.78197,-0.90463 1.06578,-1.25854 0.22796,-0.15329 0.49667,-0.34633 0.60686,-0.42392 0.29739,-0.20061 0.70198,-0.31227 1.02805,-0.19304 l -0.70197,2.98831 0.35325,-1.49321 0.61291,1.35884 c -0.26871,0.19304 -0.46799,0.33119 -0.67027,0.47124 h 3.72119 l -15.30141,-30.86153 z m -14.72322,48.46776 c 0.36532,0.82703 0.3457,1.83197 -0.0528,2.6344 l -19.02559,38.36163 c -0.37741,0.76269 -1.04315,1.22447 -1.75719,1.22447 -0.71555,0 -1.37979,-0.46178 -1.75869,-1.22447 l -19.0332,-38.36163 c -0.39702,-0.80243 -0.41513,-1.80737 -0.0513,-2.6344 0.36533,-0.82136 1.05824,-1.33424 1.81002,-1.33424 h 10.62008 v -52.20929 c 0,-1.43265 0.9269,-2.59466 2.06968,-2.59466 h 12.68071 c 1.14278,0 2.07119,1.16201 2.07119,2.59466 V 477.003 h 10.6186 c 0.75027,0 1.44469,0.51288 1.80851,1.33424 z m -31.83767,3.85698 0.0468,0.26495 c 0.12228,-0.0757 0.27778,-0.1779 0.41214,-0.26495 h -0.45893 z m 8.63647,-37.47214 c -1.0054,0.59993 -1.15485,0.54315 -1.50659,0.40311 -0.15549,-0.0606 -0.28078,-0.18169 -0.40306,-0.31038 v 3.23245 l 1.90965,-3.32518 z m -1.90814,5.82143 v 4.41906 c 0.4242,-0.93491 1.17145,-2.39216 2.4818,-4.93572 -1.59566,1.02196 -1.66812,0.99357 -2.0893,0.82135 -0.15247,-0.0643 -0.27475,-0.17411 -0.3925,-0.30469 z m 1.4613,-10.45624 -0.1253,0.0776 c -0.44986,0.28766 -0.9586,0.14762 -1.336,-0.24603 v 2.43947 c 0.45137,-0.70023 0.94501,-1.46292 1.4613,-2.27103 z m 0.44987,-5.94256 c -1.02654,0.63022 -1.15486,0.57723 -1.51415,0.42772 -0.14643,-0.0568 -0.27927,-0.1533 -0.39702,-0.27442 v 3.16621 c 0.35778,-0.62454 1.099,-1.90768 1.91117,-3.31951 z m -0.55102,23.53364 c -0.28078,0.13816 -0.64007,0.24035 -0.9586,0.11545 -0.14944,-0.0568 -0.28229,-0.15898 -0.40306,-0.2782 v 4.70294 l 2.64634,-5.40318 c -0.42872,0.28009 -0.86047,0.57533 -1.28468,0.86299 z m -0.006,7.31086 c -0.4559,0.27441 -0.9737,0.17222 -1.35412,-0.21575 v 3.89104 c 0.39099,-0.84974 1.0688,-2.13288 2.21761,-4.24684 -0.28984,0.19115 -0.57817,0.38418 -0.86349,0.57155 z m -0.0181,6.35133 c -0.44985,0.28767 -0.96765,0.19304 -1.336,-0.17979 v 2.68172 c 0.3291,-0.59236 0.8318,-1.41183 1.62434,-2.6855 l -0.28834,0.18357 z m -1.336,-43.95406 v 4.36797 c 0.26117,-0.59615 0.63706,-1.38723 1.21071,-2.54168 l -0.75631,-1.82629 h -0.4544 z m 10.61105,54.80774 c -1.14277,0 -2.06968,-1.16202 -2.06968,-2.59845 v -52.20929 h -3.48568 c -0.28532,0.57155 -0.58875,1.17148 -0.90275,1.80169 1.6666,-1.08063 1.71492,-1.08063 2.1829,-0.89517 0.314,0.12491 0.57818,0.40879 0.72914,0.77783 0.27022,0.66428 0.32909,0.80812 -2.28706,5.40318 l 0.62498,-0.39743 c 0.60988,-0.38986 1.35865,-0.087 1.66811,0.68131 0.28532,0.69646 0.36684,0.89896 -1.71491,4.2071 0.41515,-0.24981 0.62347,-0.27631 0.9888,-0.13247 0.3789,0.14761 0.67932,0.51666 0.80462,0.99358 0.12379,0.47502 0.0618,0.99358 -0.1721,1.39668 l -2.20101,3.82671 c 1.1156,-0.68132 1.22581,-0.63779 1.57905,-0.49396 0.31551,0.1287 0.57818,0.40879 0.72613,0.77216 0.33966,0.84028 0.33966,0.84028 -2.46671,6.2832 -0.0951,0.19304 -0.19474,0.37851 -0.29438,0.57155 1.4749,-0.9122 1.64398,-0.84975 2.02742,-0.70024 0.32003,0.12302 0.58874,0.41257 0.74121,0.7873 0.19625,0.4807 0.17813,1.05792 -0.0484,1.51402 l -2.84562,5.81008 c 1.61831,-1.02197 1.76323,-0.97466 2.16931,-0.80622 0.37589,0.14383 0.67329,0.49963 0.80161,0.97087 0.12832,0.46556 0.0739,0.97465 -0.15096,1.38154 -0.74877,1.36641 -1.69529,3.06591 -2.57087,4.67456 l 0.99181,-0.67185 c 0.61291,-0.38797 1.36016,-0.16843 1.67114,0.59993 0.30495,0.75323 0.33061,0.77783 -1.63792,3.96297 0.60384,0.0113 1.33298,0.24035 1.63943,0.98979 0.31551,0.76269 0.0725,2.02122 -0.53742,2.41487 -0.99936,0.64536 -1.82662,1.17148 -2.51048,1.61055 -3.17622,2.0269 -3.25019,2.00419 -3.67137,1.83008 -0.14492,-0.0568 -0.27475,-0.15898 -0.39099,-0.27442 v 1.79601 c 5.72293,-3.7756 5.79539,-3.76614 6.38263,-3.52957 0.31702,0.12869 0.58573,0.41825 0.73367,0.78729 0.26267,0.64346 0.13738,1.44211 -0.30343,1.90767 l -3.49626,3.72262 2.45463,-1.52349 c 0.61139,-0.39365 1.35714,0.006 1.66812,0.76837 0.35626,0.87435 0.41967,1.21689 -4.98927,8.61859 3.14755,-2.01744 7.08159,-4.45502 10.68956,-6.63522 h -2.52709 z m 7.05743,0 c -0.0966,0.0624 -0.19475,0.1249 -0.29136,0.18925 -0.94653,1.05225 -2.64483,2.69875 -5.60669,5.47699 3.41323,-2.14235 3.55513,-2.08557 3.90083,-1.94552 0.314,0.12869 0.57365,0.40878 0.72311,0.77783 0.43174,1.0636 0.45589,1.1147 -7.04233,9.54971 l 0.43929,-0.2782 c 0.61139,-0.39364 1.35865,-0.0852 1.66963,0.67753 0.33514,0.82703 0.36382,0.89327 -4.87754,9.73708 0.009,0.0151 0.0151,0.0341 0.0226,0.053 0.35778,0.87813 -0.10115,2.00419 -0.83029,2.21994 -0.3623,0.21385 -1.12164,0.76647 -1.12465,0.77215 -0.0212,0.0151 -0.0378,0.0246 -0.0574,0.0397 -0.5027,0.31606 -1.1156,0.1779 -1.49149,-0.35201 -0.39098,-0.55262 -0.41816,-1.37397 -0.0695,-1.96444 0.97068,-1.63326 2.14667,-3.61663 3.21698,-5.43725 l -4.17558,2.67604 c -0.61139,0.38229 -1.35865,0.0852 -1.66963,-0.6832 -0.23852,-0.58669 -0.34721,-0.85354 0.55856,-2.06097 l 0.0679,-0.0852 c 0.81369,-1.0636 2.37614,-2.81987 5.23836,-6.03339 0.43325,-0.48449 0.88613,-0.99358 1.34958,-1.51781 -2.71126,1.74302 -5.65953,3.64123 -8.10056,5.21771 -0.26871,0.10031 -0.63555,0.21954 -0.94955,0.0965 -0.314,-0.12491 -0.57666,-0.40879 -0.72461,-0.77404 -0.29135,-0.72106 -0.40759,-0.99926 0.55704,-2.04583 l -0.0181,-0.0435 c 0.0513,-0.0379 0.10265,-0.07 0.15548,-0.10598 0.64008,-0.66807 1.68474,-1.63704 3.33171,-3.16432 0.84538,-0.7835 1.86136,-1.72031 2.95733,-2.74417 -0.0286,0.0208 -0.0558,0.0398 -0.0845,0.053 -7.69147,4.91491 -7.8077,4.8657 -8.22133,4.70295 -0.40156,-0.16844 -0.71103,-0.57723 -0.81822,-1.0901 -0.10718,-0.51477 0,-1.06361 0.28985,-1.45157 1.43715,-1.95499 3.26378,-4.43989 4.91681,-6.70146 l -6.05807,3.86644 c -0.56309,0.35958 -1.24996,0.13437 -1.60019,-0.52234 -0.34721,-0.66428 -0.24758,-1.53863 0.23399,-2.0515 l 3.41021,-3.60717 c -4.24049,2.79149 -4.30994,2.7631 -4.83377,2.55681 -0.42571,-0.17411 -0.74575,-0.60939 -0.83934,-1.15633 l -0.38042,-2.1802 c -0.41514,0.0378 -0.80009,-0.23089 -1.05673,-0.6605 h -0.82123 l 15.30895,30.85396 15.30292,-30.85396 h -1.90815 z"
       id="path4017"
       inkscape:export-filename="/home/seb/Desktop/workflow.png"
       inkscape:export-xdpi="35.224514"
       inkscape:export-ydpi="35.224514" />
    <path
       style="fill-rule:evenodd"
       inkscape:connector-curvature="0"
       clip-rule="evenodd"
       d="m -591.54991,238.3077 c -0.21608,0.94788 -0.93564,1.70006 -1.87129,1.96913 -0.92545,0.26501 -1.93449,0.008 -2.62959,-0.68287 l -6.60049,-6.60253 -20.05015,20.07462 v 45.13933 c 0,1.47992 -1.20065,2.67852 -2.67648,2.67852 h -13.20506 c -1.48398,0 -2.67647,-1.20065 -2.67647,-2.67852 V 252.8622 l -19.91358,-19.93192 -6.59641,6.59845 c -0.69103,0.69103 -1.70618,0.94788 -2.62959,0.68288 -0.93565,-0.26908 -1.65522,-1.02127 -1.8713,-1.96914 l -7.72978,-33.22055 c -0.212,-0.89896 0.0611,-1.84275 0.71346,-2.50117 0.65638,-0.65027 1.60018,-0.92138 2.50321,-0.71346 l 33.19812,7.7359 c 0.9438,0.22015 1.69395,0.93769 1.96302,1.87334 0.27112,0.9336 0.0102,1.9406 -0.6788,2.62551 l -6.59641,6.60661 17.01898,17.03121 16.96191,-16.9721 -6.59641,-6.59437 c -0.68899,-0.69103 -0.94992,-1.69599 -0.6788,-2.63164 0.26907,-0.9336 1.01922,-1.65114 1.96302,-1.86925 l 33.19813,-7.74202 c 0.90914,-0.212 1.84479,0.0632 2.50321,0.71346 0.65026,0.6523 0.92545,1.59814 0.71345,2.50117 l -7.7359,33.22259 z m -28.60143,3.86897 c 0.12231,0.1855 0.10804,0.39953 0.15085,0.60746 l 6.29471,-6.30084 c -1.70617,1.26588 -3.99127,2.91905 -7.07952,5.15727 0.24666,0.11823 0.46885,0.29761 0.63396,0.53611 z m -7.90509,53.34816 v -43.56974 c 0,-0.27519 0.0754,-0.53407 0.15492,-0.79295 l -2.0201,1.85294 c 0.159,0.38527 0.16512,0.81742 0.008,1.20472 l -1.95487,4.9412 c 0.44438,-0.14473 0.63396,-0.0917 0.94584,0.008 0.46272,0.14677 0.83576,0.48719 1.01514,0.93361 0.18346,0.44438 0.15493,0.95195 -0.0754,1.37595 l -1.2516,2.30344 c 0.52388,0.0449 1.02126,0.35877 1.28014,0.86634 0.28334,0.5565 0.32615,0.64211 -2.00175,6.85326 0.43419,-0.16716 0.68084,-0.15289 1.05387,-0.0306 0.41584,0.12638 0.76646,0.41992 0.96419,0.80722 0.28334,0.55854 0.32615,0.63804 -2.06902,7.23648 0.57076,-0.25684 1.25568,-0.15084 1.72452,0.27315 0.50553,0.45458 0.67065,1.17619 0.40973,1.80403 l -1.91206,4.67008 c 0.45253,-0.13046 0.95399,-0.053 1.35353,0.22626 0.48719,0.33635 0.74606,0.91119 0.68491,1.50234 l -0.5565,4.80054 c 0.16716,0.13657 0.3017,0.31188 0.40158,0.50554 0.40157,0.78887 0.0856,1.7551 -0.70327,2.15871 -0.0611,0.0285 -0.12434,0.0469 -0.18549,0.0693 h 2.73356 z m -7.85006,0 h 2.71521 c -0.34857,-0.33839 -0.57484,-0.79296 -0.5198,-1.2883 l 0.42604,-3.6427 -0.89284,0.45661 c -0.57077,0.28742 -1.24142,0.18957 -1.72861,-0.20996 v 4.68435 z m 0,-7.70125 1.4208,-3.46943 c -0.40565,0.12841 -0.59522,0.0652 -0.90099,-0.0245 -0.18957,-0.0632 -0.36488,-0.16512 -0.51981,-0.2915 v 3.78539 z m 0,-6.98983 c 0.54427,-1.49622 1.12523,-3.10047 1.64503,-4.53554 -0.47292,0.18754 -0.73587,0.17123 -1.12522,0.051 -0.18957,-0.0571 -0.36488,-0.16104 -0.51981,-0.28539 v 4.76997 z m 0,-7.94586 c 0.41585,-1.10892 1.02127,-2.71521 1.58184,-4.21551 -0.54019,0.212 -1.13542,0.0795 -1.58184,-0.2813 v 4.49681 z m 0,-7.25279 0.83169,-1.53087 c -0.30169,-0.0285 -0.58707,-0.16512 -0.83169,-0.35877 v 1.88964 z m 0,-5.00642 1.45546,-3.66717 c -0.43419,0.159 -0.60135,0.10804 -0.96011,-0.004 -0.19366,-0.0611 -0.3445,-0.19773 -0.49535,-0.31799 v 3.98923 z m 0,-6.48226 4.65174,-4.2685 -2.94759,1.49825 c -0.62785,0.32412 -1.35965,0.17327 -1.84072,-0.29761 0.0611,0.22015 0.13657,0.43827 0.13657,0.67473 v 2.39313 z m -0.77664,-4.2787 c 0.0611,0.0632 0.0897,0.15085 0.14065,0.21608 -0.0143,-0.33431 0.17938,-0.7155 0.954,-1.42488 l -0.0713,-0.13657 0.55242,-0.28335 c 1.21491,-1.02329 3.33489,-2.59698 6.95109,-5.22657 l -8.21085,4.18289 c -0.79092,0.40158 -1.75714,0.0856 -2.15872,-0.70326 -0.006,-0.008 -0.55242,-1.37391 -1.02126,-2.56029 -0.67472,0.31188 -0.83984,0.27519 -1.28014,0.1325 -0.39954,-0.12842 -0.72976,-0.40361 -0.92953,-0.77461 l -2.06902,-3.87712 c -0.0428,0.0245 -0.0754,0.0428 -0.11416,0.0611 -0.38323,0.19365 -0.92545,0.2915 -1.32091,0.16715 -0.41585,-0.12842 -0.76034,-0.41788 -0.96011,-0.80519 -0.004,-0.0143 -0.71753,-1.63279 -1.28422,-2.91905 l -0.12842,0.0611 c -0.76034,0.38527 -1.6858,0.11823 -2.11591,-0.6156 l -2.71521,-4.62728 -0.28742,0.14473 c -0.39138,0.20385 -0.85614,0.23238 -1.26995,0.0856 -0.41584,-0.15085 -0.75219,-0.46477 -0.93157,-0.87042 0,0 -0.68492,-1.56552 -1.23122,-2.81917 -0.0387,0.0204 -0.055,0.0347 -0.055,0.0347 -0.8215,0.47089 -1.75714,0.16512 -2.19133,-0.60541 -0.21608,-0.37915 -0.25481,-0.80315 -0.15492,-1.19046 l 1.93041,-0.98457 c 0.41584,-0.20996 0.68491,-0.57483 0.80314,-0.9866 0.33023,-0.0897 0.5993,-0.0999 0.91526,-0.006 0.41992,0.12638 0.77054,0.41992 0.97031,0.80926 0.0143,0.0224 0.71753,1.62261 1.2781,2.90275 l 0.12434,-0.0612 c 0.75627,-0.38322 1.68172,-0.11618 2.10979,0.6197 l 2.71521,4.62319 0.29558,-0.14473 c 0.38934,-0.20181 0.85003,-0.23238 1.26384,-0.0856 0.41584,0.15084 0.75626,0.46272 0.93157,0.86837 0,0 0.68491,1.55738 1.23529,2.81713 0.59115,-0.26703 0.89285,-0.28742 1.33519,-0.15288 0.40565,0.12842 0.74607,0.40565 0.94584,0.78073 l 2.06902,3.87712 c 0.13046,-0.0693 0.22015,-0.11619 0.22015,-0.11619 0.006,-0.002 0.0102,-0.004 0.0163,-0.006 0.37711,-0.19773 0.8113,-0.23239 1.21287,-0.10193 0.41177,0.13047 0.75015,0.41993 0.94584,0.80315 0,0 0.22423,0.55242 0.50961,1.26996 l 0.50961,1.29237 1.75103,-0.89284 -20.08481,-20.09499 c -0.34041,-0.34043 -0.52795,-0.75831 -0.64618,-1.19046 -0.0184,-0.0856 -0.0326,-0.16104 -0.0449,-0.24461 -0.0754,-0.43623 -0.0673,-0.87042 0.0734,-1.29237 l -1.96302,1.69598 c 0.50553,0.0673 0.96418,0.37508 1.21287,0.86023 0.1957,0.37914 0.20996,0.79703 0.0999,1.1721 -0.43827,0.12842 -0.99068,0.41381 -1.97933,0.97234 -0.39138,0.22423 -0.65027,0.59522 -0.75423,1.00088 l -2.06494,1.0498 0,0 c 0.24053,0.051 0.4668,0.11415 0.68492,0.22626 0.25073,0.11212 0.48514,0.25481 0.68492,0.45662 l 22.59617,22.61655 z m -16.46861,-37.05282 -1.42079,-0.33227 c -0.36896,0.61969 -1.33518,1.56553 -3.56116,3.54486 l 5.89518,-3.00059 -0.91323,-0.212 z m -13.59031,2.78248 c 3.98109,-2.03845 6.46391,-3.30025 8.04574,-4.07485 l -6.32733,-1.4738 c -0.19162,0.84799 -0.68492,2.39313 -1.71841,5.54865 z m -1.40653,16.73563 3.95662,-3.95662 -2.39517,1.21899 c -0.72161,0.36896 -1.61037,0.13658 -2.05883,-0.53407 -0.45457,-0.67472 -0.3343,-1.57776 0.27927,-2.11183 l 5.92169,-5.12058 -5.31627,2.71114 c -0.79092,0.40361 -1.75714,0.0876 -2.16076,-0.70326 -0.49941,-0.98458 -0.57891,-1.14154 3.55709,-4.81889 -0.83576,0.41992 -1.64503,0.83576 -2.39517,1.22307 h -0.004 c -0.37915,0.19161 -0.81742,0.2283 -1.22511,0.0999 -0.40565,-0.13046 -0.73588,-0.42196 -0.9336,-0.80315 -0.3017,-0.59523 -0.18958,-0.94992 0.0938,-1.81014 0.71957,-2.18113 1.25568,-3.81393 1.65318,-5.04107 -0.6788,0.35265 -1.18841,0.61765 -1.18841,0.61765 -0.006,0.002 -0.006,0.004 -0.0102,0.004 -0.78888,0.40157 -1.74695,0.0938 -2.15463,-0.69511 -0.40973,-0.7848 -0.10396,-1.75511 0.68899,-2.16279 1.12115,-0.58096 1.95487,-1.01719 2.64998,-1.37188 l -4.62319,-1.07834 5.66484,24.33293 z m 18.12382,-18.79039 c 0.0897,0.14473 0.15696,0.29761 0.19977,0.45661 l 0.33023,-0.33226 -0.53,-0.12435 z m 39.41742,3.91178 4.40509,-4.95342 c -1.35965,0.70938 -2.78656,1.45341 -4.16455,2.17502 -0.89691,0.43826 -1.75102,0.11619 -2.16483,-0.67065 -0.11415,-0.20792 -0.16511,-0.43011 -0.17938,-0.64822 l -1.61445,0.37507 3.71812,3.7222 z m 10.57138,-7.05302 -5.35499,6.0236 c 3.46535,-1.79179 7.53613,-3.91993 10.6203,-5.54457 0.0102,-0.004 0.0143,-0.008 0.0245,-0.0102 0.73588,-0.37916 1.6491,-0.12843 2.09145,0.58095 0.44438,0.71346 0.26296,1.65318 -0.41992,2.14852 -3.5367,2.5766 -9.40131,6.84103 -15.17215,11.0443 11.83318,-6.10515 12.22048,-5.98284 12.8259,-5.78919 0.40972,0.12843 0.75422,0.42196 0.94787,0.80315 0.40158,0.79296 0.0917,1.75918 -0.69918,2.16279 -0.15493,0.0775 -0.31596,0.13046 -0.47088,0.15696 -1.90391,0.73588 -15.94676,8.00906 -26.48553,13.52509 l -0.9968,0.9968 -0.70326,0.70326 12.37133,-6.30491 c 0.78888,-0.39954 1.7551,-0.0856 2.15871,0.7053 0.0611,0.11823 0.10804,0.22016 0.14473,0.32412 l 4.61096,-4.61301 c 1.00495,-1.00699 2.78044,-1.00903 3.7854,0 l 5.08592,5.08593 5.66076,-24.33497 -10.02507,2.33606 z m 3.78744,16.22806 c -0.43419,0.25481 -0.79296,0.46273 -1.09873,0.61765 -0.64211,0.33227 -1.07629,0.43419 -1.60018,0.27927 -0.42604,-0.12231 -0.79091,-0.424 -0.98661,-0.81742 -0.4668,-0.91322 0.12843,-2.08329 1.08446,-2.29733 0.27926,-0.15899 0.7053,-0.39137 0.89691,-0.50553 0.38323,-0.19365 0.954,-0.34246 1.38003,-0.22015 l -0.91526,3.07805 0.46273,-1.53699 0.77665,1.40245 z"
       id="path4043"
       inkscape:export-filename="/home/seb/Desktop/workflow.png"
       inkscape:export-xdpi="35.224514"
       inkscape:export-ydpi="35.224514" />
    <text
       xml:space="preserve"
       style="font-size:40px;font-style:normal;font-variant:normal;font-weight:normal;font-stretch:normal;line-height:125%;letter-spacing:0px;word-spacing:0px;fill:#000000;fill-opacity:1;stroke:none;display:inline;font-family:DejaVu Sans;-inkscape-font-specification:DejaVu Sans"
       x="-852.86914"
       y="172.36098"
       id="text5855-7-6"
       sodipodi:linespacing="125%"
       inkscape:export-filename="/home/seb/Desktop/workflow.png"
       inkscape:export-xdpi="35.224514"
       inkscape:export-ydpi="35.224514"><tspan
         sodipodi:role="line"
         id="tspan5857-9-6"
         x="-852.86914"
         y="172.36098"
         style="font-style:normal;font-variant:normal;font-weight:normal;font-stretch:normal;font-family:Bitstream Vera Serif;-inkscape-font-specification:Bitstream Vera Serif">Service A</tspan></text>
    <text
       xml:space="preserve"
       style="font-size:40px;font-style:normal;font-variant:normal;font-weight:normal;font-stretch:normal;line-height:125%;letter-spacing:0px;word-spacing:0px;fill:#000000;fill-opacity:1;stroke:none;display:inline;font-family:DejaVu Sans;-inkscape-font-specification:DejaVu Sans"
       x="-617.75574"
       y="172.36098"
       id="text5855-7-6-0"
       sodipodi:linespacing="125%"
       inkscape:export-filename="/home/seb/Desktop/workflow.png"
       inkscape:export-xdpi="35.224514"
       inkscape:export-ydpi="35.224514"><tspan
         sodipodi:role="line"
         id="tspan5857-9-6-3"
         x="-617.75574"
         y="172.36098"
         style="font-style:normal;font-variant:normal;font-weight:normal;font-stretch:normal;font-family:Bitstream Vera Serif;-inkscape-font-specification:Bitstream Vera Serif">Service B</tspan></text>
    <path
       style="fill-rule:evenodd"
       inkscape:connector-curvature="0"
       clip-rule="evenodd"
       d="m -434.07011,401.63769 0.7417,22.01223 c 0.0133,0.39333 -0.23706,0.75503 -0.63423,0.91663 -0.39802,0.16088 -0.86407,0.0915 -1.18069,-0.17733 l -13.11731,-11.13765 c -0.20858,-0.17711 -0.32918,-0.42202 -0.33875,-0.67957 l -0.77478,-22.98378 c -0.0174,-0.53645 0.4497,-0.98496 1.04376,-1.00216 l 25.45402,-0.712 c 0.28687,-0.008 0.56422,0.0856 0.77281,0.2628 l 13.11645,11.13694 c 0.31665,0.26885 0.42274,0.68531 0.26848,1.05317 -0.15498,0.36862 -0.53957,0.61505 -0.97434,0.62784 l -24.37713,0.68287 z m -1.20713,-2.00547 c -0.0175,0.0535 -0.0721,0.0828 -0.10383,0.12848 0.0583,-0.0104 0.11027,-0.0347 0.17119,-0.0371 l 5.36633,-0.1496 c -1.30584,-0.1496 -3.3015,-0.41743 -6.42747,-0.84118 0.81629,0.24987 0.86381,0.33152 0.93781,0.44993 0.0819,0.13655 0.10303,0.29975 0.056,0.44943 z m 7.51905,-0.95555 c 0.34307,0.0889 0.53796,0.41401 0.44029,0.72302 -0.0129,0.0393 -0.0265,0.0713 -0.0421,0.104 l 5.62802,-0.15685 0.23815,-0.006 c -0.81545,-0.12937 -1.93405,-0.32242 -3.50525,-0.59608 -2.16612,-0.37692 -4.81602,-0.84254 -7.49946,-1.31385 l 4.74024,1.24568 z m 7.89571,-0.26091 c 0.0122,0.001 0.0235,0.003 0.0318,0.003 l -0.001,0.007 c 0.46742,0.15743 0.50193,0.21525 0.54925,0.29105 0.0811,0.13582 0.10199,0.29611 0.0534,0.44436 -0.0144,0.0452 -0.0292,0.078 -0.0424,0.11501 l 4.43658,-0.12383 c -1.4294,-0.24313 -3.89457,-0.75092 -8.23977,-1.65025 -0.0115,-0.003 -0.023,-0.005 -0.0336,-0.006 1.8267,0.49064 2.7574,0.75642 3.24616,0.91915 z m -15.69701,22.94789 -0.69574,-20.63778 c -0.006,-0.13133 0.0215,-0.25546 0.0696,-0.36992 0.0473,-0.11516 0.12115,-0.21783 0.20999,-0.30771 l -3.17871,-0.27613 c 0.74356,0.19236 1.46902,0.37939 2.12465,0.54556 0.002,0.002 0.002,0.002 0.005,0.002 0.31355,0.0823 0.5078,0.36419 0.45667,0.65426 -0.0519,0.29083 -0.33679,0.50218 -0.66425,0.48924 0,0 -1.53124,-0.056 -3.30198,-0.1214 l 3.57554,0.94086 c 0.34307,0.0889 0.5396,0.41397 0.43867,0.72305 -0.072,0.22678 -0.11039,0.34242 -0.79192,0.37087 l -0.007,0.0252 -0.0869,-0.0212 c -0.5494,0.0153 -1.47537,-0.0157 -3.05422,-0.0835 1.24081,0.31811 2.51601,0.64267 3.56056,0.90676 0.18233,0.0508 0.30669,0.1435 0.39102,0.27929 0.0844,0.13575 0.10442,0.29676 0.0559,0.44648 -0.072,0.22676 -0.11189,0.34538 -0.78683,0.37659 l -0.009,0.0215 c -0.0247,-0.007 -0.0484,-0.0127 -0.0729,-0.0195 -0.50792,0.0148 -1.33535,-0.0122 -2.7148,-0.0774 3.42716,0.85902 3.43756,0.87784 3.59239,1.12474 0.112,0.18493 0.10751,0.41054 -0.0142,0.58946 -0.12161,0.18039 -0.34081,0.28783 -0.57617,0.28041 l -3.25932,-0.11084 c 3.75105,0.95877 3.7717,0.99199 3.91642,1.22889 0.0835,0.13649 0.1028,0.29828 0.0543,0.44801 -0.11845,0.36978 -0.14938,0.46174 -4.01192,0.38746 3.84715,0.98622 3.89646,1.07225 4.02565,1.28314 0.0845,0.13722 0.10383,0.30047 0.0544,0.45094 -0.0815,0.25715 -0.3537,0.43508 -0.651,0.42351 -1.0117,-0.0395 -2.20067,-0.077 -3.35559,-0.11846 3.86795,0.9996 3.87764,1.06912 3.99403,1.262 0.0835,0.13649 0.0745,0.32404 0.0274,0.47079 -0.0654,0.20235 -0.15818,0.37017 -0.9192,0.43094 l -0.1135,0.10889 -0.002,-0.002 c -0.28649,-0.24325 -1.49104,-0.0461 -3.28308,-0.0441 4.11247,1.03761 4.22866,0.93818 4.38882,1.19816 0.0973,0.15668 0.10775,0.3481 0.0281,0.51262 -0.0773,0.16669 -0.23658,0.29083 -0.43029,0.33586 l -2.21854,0.52061 c 0.005,0.002 0.007,-7.2e-4 0.008,9.1e-4 2.53206,0.63633 2.53609,0.6355 2.68605,0.88255 0.0964,0.15596 0.10924,0.34364 0.0336,0.50732 0,0 -0.35301,0.76633 -0.61041,1.33021 0.13695,0.0289 0.241,0.0534 0.24271,0.0548 0.34359,0.0808 0.55681,0.3944 0.46825,0.70827 -0.0862,0.31161 -0.43523,0.50126 -0.7844,0.42429 -0.3066,-0.0694 -0.5362,-0.12325 -0.71265,-0.16902 l 1.89901,1.61242 z m -2.61861,-2.22342 c -0.005,-0.0668 -0.003,-0.13504 0.0177,-0.19878 0.009,-0.0356 0.0159,-0.0466 0.63337,-1.39622 -0.45631,-0.11808 -1.08647,-0.27687 -1.60252,-0.40585 -1.06253,-0.26656 -1.65906,-0.41666 -2.02305,-0.5234 l 2.97378,2.52498 z m -3.68831,-3.13167 c -0.005,-0.088 0.0127,-0.17445 0.0507,-0.25628 0.0773,-0.1652 0.23665,-0.28935 0.43113,-0.33515 l 2.26136,-0.52986 c -0.66061,-0.16896 -1.39087,-0.35289 -2.05719,-0.52246 -2.17762,-0.54776 -3.23531,-0.81589 -3.77786,-0.98152 l 3.0919,2.62527 z m -4.59219,-3.89914 0.78407,0.66575 c -0.007,-0.11147 0.0134,-0.2266 0.0792,-0.32614 0.11598,-0.17802 0.32943,-0.28751 0.55803,-0.28723 1.15039,0.003 2.52695,0.007 3.8212,0.008 -1.47323,-0.38297 -3.09095,-0.80446 -4.42625,-1.15008 -0.13769,-0.0543 -0.30421,-0.14292 -0.38855,-0.27863 -0.0827,-0.13579 -0.1028,-0.29682 -0.0543,-0.44506 0.0649,-0.20013 0.10234,-0.31648 0.78582,-0.35895 l 0.0129,-0.0392 c 0.0425,0.009 0.0821,0.0213 0.12393,0.0327 0.57673,-0.0248 1.54126,-0.008 3.179,0.0455 -1.2917,-0.33143 -2.63078,-0.66887 -3.72124,-0.94343 -0.29113,-0.069 -0.51406,-0.35666 -0.46626,-0.64958 0.0487,-0.29072 0.33099,-0.50424 0.65915,-0.49498 1.12842,0.0275 2.52229,0.0623 3.85256,0.0929 -0.40211,-0.10352 -0.79278,-0.2042 -1.15219,-0.29562 -3.21853,-0.82444 -3.21518,-0.82159 -3.35557,-1.05054 -0.11292,-0.18416 -0.10751,-0.40906 0.0142,-0.58798 0.12238,-0.17968 0.34171,-0.28565 0.57463,-0.27743 l 3.30082,0.11042 c -3.78322,-0.94758 -3.79535,-0.96928 -3.95623,-1.22704 -0.0828,-0.13725 -0.10464,-0.30118 -0.0552,-0.45018 0.14642,-0.45431 0.14642,-0.45431 3.39878,-0.28526 0.0383,0.002 0.079,0.004 0.11895,0.005 -3.35514,-0.87058 -3.39905,-0.94208 -3.52563,-1.14791 -0.0836,-0.13648 -0.10533,-0.29748 -0.0559,-0.44649 0.14195,-0.44099 0.14413,-0.45057 3.84455,-0.28586 l -3.47293,-0.91361 c -0.34223,-0.0882 -0.5419,-0.41023 -0.44339,-0.71852 0.0737,-0.22827 0.10499,-0.33272 0.7866,-0.35969 l 9.2e-4,-0.0235 0.0879,0.046 c 0.53806,-0.0134 1.38706,0.0503 2.87595,0.10459 -1.94594,-0.50497 -3.07855,-0.56026 -3.40776,-0.83976 l -0.003,-0.003 c -0.29235,-0.24824 -0.36491,-0.27707 -0.4251,-0.37236 -0.11626,-0.18847 -0.0259,-0.49801 0.10545,-0.68014 0.1322,-0.17992 0.36219,-0.28106 0.60207,-0.25982 l 3.32231,0.28831 c -1.27198,-0.32609 -2.54708,-0.64768 -3.61705,-0.91766 -0.002,5.7e-4 -0.003,-5.3e-4 -0.008,-0.002 -0.32502,-0.085 -0.52304,-0.38138 -0.45106,-0.68084 0.0719,-0.30241 0.3913,-0.50151 0.72883,-0.45578 2.65783,0.36403 5.84195,0.79865 8.7864,1.19515 l -9.14318,-2.40453 c -0.34391,-0.0896 -0.53881,-0.41474 -0.43873,-0.72454 0.0935,-0.29124 0.13616,-0.42316 0.7935,-0.37236 l 0.008,-0.0258 0.15671,0.039 c 0.5576,0.0587 1.47976,0.21599 3.02799,0.48454 1.9697,0.34275 4.65286,0.8052 7.47959,1.30411 0.8421,0.14773 1.7309,0.281 2.60496,0.43604 -4.51931,-1.18351 -9.36131,-2.64671 -13.63049,-3.60359 l -8.3e-4,-7.1e-4 c -0.11142,-0.0946 -0.34359,-0.10351 -0.42629,-0.23939 -0.0844,-0.13575 -0.14451,-0.25527 -0.0952,-0.40573 0.0773,-0.23939 0.11987,-0.37278 0.77184,-0.3152 l 0.0268,-0.0824 c 0.2331,0.061 0.4629,0.12086 0.69355,0.18124 1.00624,0.16604 2.74249,0.52946 5.76989,1.16641 1.49938,0.31542 3.29948,0.69363 5.24293,1.10094 -7.75995,-2.0367 -10.6546,-2.80989 -11.76968,-3.16235 -0.20552,-0.0391 -0.3128,-0.0604 -0.3128,-0.0604 l 0.009,-0.0406 c -0.35077,-0.12395 -0.39566,-0.17636 -0.4352,-0.2384 l -0.48191,0.014 0.73043,21.60931 z m 7.4754,-21.84061 -2.07807,0.0584 -1.1012,0.0312 c 4.04969,0.77055 8.4653,1.60799 12.53263,2.37072 l -9.35336,-2.46038 z m 15.72998,-0.44004 -0.3316,0.009 0.49576,0.13024 -0.16418,-0.1394 z m 2.25505,1.91471 -2.57717,-0.38388 c 1.27514,0.3231 2.25906,0.57413 3.03956,0.7765 l -0.46239,-0.39262 z m 2.64959,2.24973 -6.32587,-1.17817 7.1535,1.88092 -0.82764,-0.70273 z m 2.8297,2.40264 -0.15233,-0.0538 c -1.5162,-0.14009 -5.1515,-0.87659 -14.37202,-2.61276 5.97298,1.56552 12.16296,3.29249 16.30023,4.17443 l -1.77588,-1.50787 z m 2.80874,2.38486 c -0.0157,0.0709 -0.0354,0.13828 -0.0532,0.1931 -0.0145,0.0459 -0.0306,0.0838 -0.0463,0.12175 l 0.45513,-0.0126 -0.35602,-0.30229 z m -42.62794,-15.20121 0.73499,21.86257 c 0.067,0.29782 -0.0221,0.6198 -0.27017,0.85805 -0.40804,0.39178 -1.09072,0.41073 -1.5238,0.043 -0.003,-0.007 -0.009,-0.0113 -0.0158,-0.0137 l -13.11647,-11.13695 c -0.20774,-0.1764 -0.32833,-0.4213 -0.33791,-0.67885 l -0.77566,-22.98596 1.04376,-1.00217 25.45486,-0.71128 c 0.28686,-0.008 0.5642,0.0857 0.77194,0.2621 l 13.11649,11.13692 c 0.31662,0.26887 0.42356,0.68604 0.26848,1.05317 -0.155,0.36864 -0.53874,0.61577 -0.97351,0.62857 l -24.37709,0.68434 z m 20.44161,-2.52084 -11.73213,-2.39371 c 3.8626,1.0093 5.47934,1.44994 6.17932,1.67659 8.4e-4,7.1e-4 8.4e-4,7.1e-4 10e-4,10e-6 l -7.8e-4,7.6e-4 c 0.49678,0.15954 0.53045,0.21665 0.57876,0.29757 0.0835,0.13503 0.10199,0.29612 0.0542,0.44507 -0.0135,0.0414 -0.0292,0.078 -0.0442,0.11363 l 2.58601,-0.0732 2.37716,-0.0667 z m -21.58386,0.60464 5.79952,-0.16089 -7.53584,-0.94853 c 1.24862,0.35611 1.29934,0.43625 1.38545,0.57636 0.11292,0.18563 0.10763,0.41346 -0.0165,0.59173 -0.009,0.0126 -0.023,0.016 -0.0308,0.0266 0.12205,-0.0474 0.25678,-0.0798 0.39815,-0.0851 z m 7.8597,-1.07976 0.0104,9.5e-4 -0.002,0.004 c 0.3898,0.14707 0.42951,0.21506 0.47511,0.28797 0.0844,0.13576 0.10625,0.29967 0.0568,0.45014 -0.013,0.0444 -0.0613,0.0663 -0.0867,0.10599 l 4.07815,-0.1146 2.10493,-0.0584 c -1.72981,-0.24872 -4.90308,-0.81956 -10.87915,-1.9017 2.57775,0.68797 3.71765,1.02874 4.24177,1.22721 z m -8.20852,22.72031 -0.6966,-20.63849 c -0.003,-0.13872 0.0275,-0.26883 0.0803,-0.39076 6.9e-4,-0.002 0.006,-0.005 0.006,-0.008 0.0553,-0.11832 0.13317,-0.22331 0.23259,-0.31274 l 0,0 c -0.0734,0.0218 -0.14564,0.0473 -0.22219,0.0451 -1.3386,-0.0605 -3.00384,-0.13334 -4.57445,-0.19848 l 3.7225,0.98013 c 0.34311,0.0903 0.54037,0.41322 0.44028,0.72302 -0.072,0.22676 -0.10958,0.34018 -0.79338,0.37531 l -0.009,0.0214 -0.0641,-0.0189 c -0.56692,0.026 -1.53905,0.002 -3.23619,-0.0527 1.27061,0.33348 2.59867,0.68151 3.73047,0.9755 l 0,0 c 0.3086,0.0811 0.50342,0.35474 0.45951,0.64242 -0.0447,0.28843 -0.3181,0.50094 -0.6394,0.50177 l -4.20474,0.004 c 0.97488,0.24916 1.93328,0.49138 2.63323,0.66954 2.07772,0.52848 2.07772,0.52848 2.21289,0.7473 0.0844,0.13575 0.10441,0.29677 0.0567,0.44572 -0.0838,0.26089 -0.12448,0.3832 -0.83147,0.38004 l -0.003,0.008 c -0.008,-0.002 -0.0172,-0.005 -0.0279,-0.006 -0.3792,-0.004 -0.94337,-0.04 -1.79341,-0.11037 l 2.2663,0.59599 c 0.3431,0.0903 0.53807,0.41695 0.43799,0.72674 -0.0699,0.21715 -0.1151,0.34841 -0.79675,0.37247 l -0.0172,0.0379 -0.11338,-0.009 c -0.39916,0.007 -0.67942,-0.31608 -1.91775,-0.035 0.002,0.002 0.002,0.002 0.002,0.002 2.51321,0.79994 2.70085,0.71981 2.8138,0.90691 0.11027,0.18057 0.1458,0.36468 0.0306,0.54195 -0.11587,0.17951 -0.32619,0.28743 -0.55468,0.2901 l -4.11879,0.0202 c 4.59268,1.16457 4.59698,1.17107 4.75802,1.43322 0.112,0.18346 0.10752,0.41054 -0.0165,0.59026 -0.12162,0.17893 -0.34334,0.28571 -0.57711,0.27676 -0.97262,-0.0391 -2.13982,-0.0824 -3.29642,-0.12521 3.78321,0.97182 3.82463,1.04117 3.95721,1.25637 0.11097,0.17835 0.10855,0.39436 -0.003,0.57155 -0.11028,0.17714 -0.31477,0.28857 -0.53908,0.2948 -0.95811,0.0288 -2.13968,0.0645 -3.27074,0.1032 3.71504,0.95242 3.7485,1.00364 3.88639,1.23044 0.0844,0.1343 0.1036,0.29607 0.0573,0.44352 -0.0494,0.15049 -0.16147,0.27624 -0.31102,0.35017 l -1.80009,0.88874 c 1.97322,0.49393 1.99658,0.53516 2.13594,0.75752 l -0.56375,0.28666 -0.2751,0.52178 c -0.18936,-0.0667 -1.61491,-0.43482 -2.96123,-0.76987 l 4.30904,3.65873 z m -4.99176,-4.23841 c -0.0157,-0.22434 0.10418,-0.44056 0.32464,-0.54813 l 1.86967,-0.92372 c -1.49871,-0.39028 -3.88451,-1.00794 -5.64139,-1.45499 l 3.44708,2.92684 z m -5.90652,-5.0151 1.76249,1.49649 c -0.005,-0.0638 -0.002,-0.12997 0.0178,-0.19293 0.11781,-0.36463 0.1436,-0.44247 3.93909,-0.56759 -1.61436,-0.41867 -3.45906,-0.889 -4.8844,-1.25124 -0.15641,-0.0301 -0.30582,-0.14131 -0.3902,-0.27856 -0.0837,-0.13798 -0.10441,-0.29678 -0.0551,-0.44578 0.0662,-0.20896 0.10671,-0.32981 0.78612,-0.37437 l 0.008,-0.0236 c 0.027,0.006 0.0508,0.012 0.0772,0.0183 0.54811,-0.0292 1.47109,-0.0152 3.04696,0.0374 -3.77868,-0.95801 -3.78303,-0.96596 -3.93287,-1.21005 -0.11028,-0.18057 -0.10798,-0.40098 0.007,-0.57825 0.11522,-0.17727 0.32619,-0.28743 0.55468,-0.29009 l 4.22454,-0.0202 c -1.51098,-0.39213 -3.1704,-0.82062 -4.48102,-1.15811 0,0 -0.002,5.7e-4 -0.003,-5.4e-4 -0.31767,-0.083 -0.51451,-0.36987 -0.45618,-0.66382 0.0602,-0.29628 0.35796,-0.50132 0.69069,-0.47676 0.75118,0.0578 1.62052,0.12177 2.50948,0.1882 l -2.80315,-0.73827 c -0.34391,-0.0896 -0.54038,-0.41322 -0.44028,-0.72303 0.0801,-0.24974 0.12152,-0.37427 0.79406,-0.37899 l 0.007,-0.017 0.0673,0.0173 c 0.33282,0.003 0.81043,0.0297 1.49633,0.0819 -2.20944,-0.57478 -2.24101,-0.64148 -2.36498,-0.84223 -0.0836,-0.13796 -0.10372,-0.29901 -0.0552,-0.45019 0.0794,-0.24753 0.33149,-0.41831 0.61865,-0.41819 l 4.05669,-0.004 c -4.57617,-1.20472 -4.58947,-1.23739 -4.70226,-1.42009 -0.0835,-0.13503 -0.102,-0.29611 -0.055,-0.44433 0.0818,-0.25127 0.11626,-0.36165 0.83698,-0.38531 l 0,0 h 0 c 0.56309,-0.0192 1.54284,0.0145 3.28811,0.0726 7.9e-4,-7.6e-4 10e-4,10e-6 0.003,-1e-4 l -3.76022,-0.98937 c -0.34307,-0.0889 -0.53876,-0.41326 -0.43945,-0.7223 0.0684,-0.21124 0.10889,-0.33794 0.79719,-0.38349 l 0.047,-0.003 c 0.66573,-0.039 1.89758,-0.008 4.22991,0.0898 -1.6094,-0.4159 -3.32859,-0.85517 -4.7063,-1.20404 -0.33708,-0.0551 -0.52706,-0.38053 -0.45759,-0.68214 0.0678,-0.29862 0.38405,-0.49908 0.72064,-0.457 l 10.36983,1.30251 c -3.46739,-0.89465 -7.4882,-1.9157 -10.72259,-2.72795 -0.17144,-0.0658 -0.30826,-0.142 -0.3926,-0.27776 -0.0835,-0.1365 -0.1028,-0.29829 -0.0551,-0.44726 0.0699,-0.21715 0.11626,-0.3602 0.77435,-0.33732 l 0.0192,-0.0607 c 0.10832,0.0264 0.21902,0.0535 0.32488,0.0806 1.41627,0.11937 4.75562,0.71717 12.8769,2.18416 -0.41529,-0.10743 -0.83061,-0.21635 -1.24339,-0.3217 -7.84084,-2.04694 -10.81765,-2.82005 -11.9799,-3.17271 l -0.37838,-0.0781 0.0103,-0.0399 c -0.35888,-0.12373 -0.38909,-0.17508 -0.43385,-0.24724 l 0.38397,-1.69779 -0.88587,0.0245 0.73453,21.60992 z m 0.18625,-21.63619 0.29491,0.84897 10.97844,2.23824 c -7.82177,-2.03646 -10.36726,-2.75689 -11.24733,-3.08798 l -0.009,10e-4 -0.017,-1.4e-4 z m 10.41391,1.04347 -4.58842,-1.20656 -0.88665,0.0253 c 1.78407,0.38613 3.62636,0.78445 5.47506,1.18123 z m 2.91995,-1.16071 c -0.32839,-0.0878 -0.60514,-0.16463 -0.85229,-0.23195 l -0.15279,0.004 -0.22185,0.007 c 0.40993,0.0736 0.81521,0.14633 1.22693,0.22087 z m 9.68527,-0.52722 -0.26736,0.008 c 0.1338,0.0335 0.27739,0.0716 0.39971,0.10418 l -0.13237,-0.11238 z m 2.24498,1.90617 c -1.37851,-0.2056 -2.93196,-0.43574 -4.49921,-0.66476 0.68691,0.17706 1.34998,0.34672 1.96797,0.50656 1.4386,0.36922 2.52266,0.64688 3.3648,0.86739 l -0.83435,-0.70843 z m 2.9076,2.46879 c -0.0313,-0.009 -0.096,-0.0294 -0.19793,-0.0554 -0.62982,-0.0772 -1.6693,-0.26443 -3.41436,-0.57879 l -5.47334,-0.98739 10.39663,2.73478 -1.311,-1.11312 z m 3.38509,2.87422 -0.22326,-0.0584 c -1.04408,-0.10694 -3.17906,-0.52589 -7.65368,-1.47192 2.73118,0.7028 5.11998,1.31302 6.75055,1.72977 0.81648,0.20722 1.43856,0.36772 1.95231,0.50039 l -0.82511,-0.70058 z"
       id="path3997"
       inkscape:export-filename="/home/seb/Desktop/workflow.png"
       inkscape:export-xdpi="35.224514"
       inkscape:export-ydpi="35.224514" />
  </g>
</svg>
